# xmcd
#
# Track frame offsets: 
#        150
#        16870
#        41102
#        65227
#        95800
#
# Disc length: 1611 seconds
#
# Revision: 0
# Processed by: cddbd v1.5.2PL0 Copyright (c) Steve Scherf et al.
# Submitted via: ExactAudioCopy v1.0b3
#
DISCID=43064905
DTITLE=Bossi - Funky Technician
DYEAR=1997
DGENRE=House
TTITLE0=Funky Technician (Original Single Edit)
TTITLE1=Funky Technician (Original Extended)
TTITLE2=Funky Technician (Sequential One Remix)
TTITLE3=Funky Technician (Jaspa Jones Remix)
TTITLE4=Funky Technician (Klubbmix)
EXTD=
EXTT0=
EXTT1=
EXTT2=
EXTT3=
EXTT4=
PLAYORDER=
